HIERARCHY
ROOT root
{
	OFFSET 0.000000 0.054209 0.736571
	CHANNELS 6 Xposition Yposition Zposition Xrotation Yrotation Zrotation
	JOINT spine04
	{
		OFFSET 0.000000 -0.030951 0.078753
		CHANNELS 6 Xposition Yposition Zposition Xrotation Yrotation Zrotation
		JOINT spine02
		{
			OFFSET 0.000000 -0.000238 0.104623
			CHANNELS 6 Xposition Yposition Zposition Xrotation Yrotation Zrotation
			JOINT spine01
			{
				OFFSET 0.000000 0.017421 0.109292
				CHANNELS 3 Xrotation Yrotation Zrotation
				JOINT neck01
				{
					OFFSET 0.000000 -0.049753 0.167208
					CHANNELS 6 Xposition Yposition Zposition Xrotation Yrotation Zrotation
					JOINT neck02
					{
						OFFSET 0.000000 0.005512 0.021216
						CHANNELS 3 Xrotation Yrotation Zrotation
						JOINT jaw
						{
							OFFSET 0.000000 -0.043573 0.063271
							CHANNELS 6 Xposition Yposition Zposition Xrotation Yrotation Zrotation
							End Site
							{
								OFFSET 0.000000 -0.008974 0.006556
							}
						}
						JOINT eye.L
						{
							OFFSET 0.023674 -0.098122 0.090003
							CHANNELS 3 Xrotation Yrotation Zrotation
							End Site
							{
								OFFSET 0.001819 -0.030370 -0.004421
							}
						}
						JOINT orbicularis03.L
						{
							OFFSET 0.023674 -0.098122 0.090003
							CHANNELS 3 Xrotation Yrotation Zrotation
							End Site
							{
								OFFSET 0.001761 -0.029014 0.005250
							}
						}
						JOINT eye.R
						{
							OFFSET -0.023674 -0.098122 0.090003
							CHANNELS 3 Xrotation Yrotation Zrotation
							End Site
							{
								OFFSET -0.001819 -0.030370 -0.004421
							}
						}
						JOINT orbicularis03.R
						{
							OFFSET -0.023674 -0.098122 0.090003
							CHANNELS 3 Xrotation Yrotation Zrotation
							End Site
							{
								OFFSET -0.001761 -0.029014 0.005250
							}
						}
						End Site
						{
							OFFSET 0.000000 0.005512 0.021217
						}
					}
				}
				JOINT clavicle.R
				{
					OFFSET -0.018367 -0.058464 0.107155
					CHANNELS 6 Xposition Yposition Zposition Xrotation Yrotation Zrotation
					JOINT upperarm01.R
					{
						OFFSET -0.132020 0.003642 -0.024313
						CHANNELS 6 Xposition Yposition Zposition Xrotation Yrotation Zrotation
						JOINT lowerarm01.R
						{
							OFFSET -0.133638 0.001770 -0.153088
							CHANNELS 6 Xposition Yposition Zposition Xrotation Yrotation Zrotation
							JOINT wrist.R
							{
								OFFSET -0.108574 -0.154814 -0.103768
								CHANNELS 6 Xposition Yposition Zposition Xrotation Yrotation Zrotation
								JOINT finger2-1.R
								{
									OFFSET -0.024321 -0.084906 -0.032804
									CHANNELS 3 Xrotation Yrotation Zrotation
									JOINT finger2-2.R
									{
										OFFSET -0.002927 -0.018838 -0.012653
										CHANNELS 3 Xrotation Yrotation Zrotation
										JOINT finger2-3.R
										{
											OFFSET 0.000460 -0.015088 -0.013862
											CHANNELS 3 Xrotation Yrotation Zrotation
											End Site
											{
												OFFSET 0.003042 -0.016083 -0.016987
											}
										}
									}
								}
								JOINT finger3-1.R
								{
									OFFSET -0.038828 -0.069770 -0.043126
									CHANNELS 3 Xrotation Yrotation Zrotation
									JOINT finger3-2.R
									{
										OFFSET -0.006387 -0.018854 -0.022184
										CHANNELS 3 Xrotation Yrotation Zrotation
										JOINT finger3-3.R
										{
											OFFSET -0.002379 -0.015757 -0.018305
											CHANNELS 3 Xrotation Yrotation Zrotation
											End Site
											{
												OFFSET 0.000156 -0.013802 -0.019326
											}
										}
									}
								}
								JOINT finger4-1.R
								{
									OFFSET -0.045586 -0.054771 -0.050312
									CHANNELS 3 Xrotation Yrotation Zrotation
									JOINT finger4-2.R
									{
										OFFSET -0.008217 -0.013209 -0.021152
										CHANNELS 3 Xrotation Yrotation Zrotation
										JOINT finger4-3.R
										{
											OFFSET -0.003838 -0.011894 -0.018031
											CHANNELS 3 Xrotation Yrotation Zrotation
											End Site
											{
												OFFSET -0.002024 -0.010563 -0.020894
											}
										}
									}
								}
								JOINT finger5-1.R
								{
									OFFSET -0.046820 -0.037780 -0.058682
									CHANNELS 3 Xrotation Yrotation Zrotation
									JOINT finger5-2.R
									{
										OFFSET -0.005234 -0.007322 -0.016539
										CHANNELS 3 Xrotation Yrotation Zrotation
										JOINT finger5-3.R
										{
											OFFSET -0.001524 -0.005483 -0.012548
											CHANNELS 3 Xrotation Yrotation Zrotation
											End Site
											{
												OFFSET -0.002248 -0.006725 -0.016024
											}
										}
									}
								}
								JOINT finger1-1.R
								{
									OFFSET -0.000927 -0.039280 -0.005363
									CHANNELS 3 Xrotation Yrotation Zrotation
									JOINT finger1-2.R
									{
										OFFSET 0.018386 -0.018805 -0.006895
										CHANNELS 3 Xrotation Yrotation Zrotation
										JOINT finger1-3.R
										{
											OFFSET 0.010991 -0.028095 -0.011249
											CHANNELS 3 Xrotation Yrotation Zrotation
											End Site
											{
												OFFSET 0.004840 -0.019091 -0.014527
											}
										}
									}
								}
							}
						}
					}
				}
				JOINT clavicle.L
				{
					OFFSET 0.018367 -0.058464 0.107155
					CHANNELS 6 Xposition Yposition Zposition Xrotation Yrotation Zrotation
					JOINT upperarm01.L
					{
						OFFSET 0.132020 0.003642 -0.024313
						CHANNELS 6 Xposition Yposition Zposition Xrotation Yrotation Zrotation
						JOINT lowerarm01.L
						{
							OFFSET 0.133637 0.001770 -0.153088
							CHANNELS 6 Xposition Yposition Zposition Xrotation Yrotation Zrotation
							JOINT wrist.L
							{
								OFFSET 0.108575 -0.154815 -0.103768
								CHANNELS 6 Xposition Yposition Zposition Xrotation Yrotation Zrotation
								JOINT finger2-1.L
								{
									OFFSET 0.024321 -0.084906 -0.032804
									CHANNELS 3 Xrotation Yrotation Zrotation
									JOINT finger2-2.L
									{
										OFFSET 0.002927 -0.018838 -0.012653
										CHANNELS 3 Xrotation Yrotation Zrotation
										JOINT finger2-3.L
										{
											OFFSET -0.000460 -0.015088 -0.013862
											CHANNELS 3 Xrotation Yrotation Zrotation
											End Site
											{
												OFFSET -0.003042 -0.016083 -0.016987
											}
										}
									}
								}
								JOINT finger3-1.L
								{
									OFFSET 0.038828 -0.069770 -0.043126
									CHANNELS 3 Xrotation Yrotation Zrotation
									JOINT finger3-2.L
									{
										OFFSET 0.006387 -0.018854 -0.022184
										CHANNELS 3 Xrotation Yrotation Zrotation
										JOINT finger3-3.L
										{
											OFFSET 0.002379 -0.015757 -0.018305
											CHANNELS 3 Xrotation Yrotation Zrotation
											End Site
											{
												OFFSET -0.000156 -0.013802 -0.019326
											}
										}
									}
								}
								JOINT finger4-1.L
								{
									OFFSET 0.045586 -0.054771 -0.050312
									CHANNELS 3 Xrotation Yrotation Zrotation
									JOINT finger4-2.L
									{
										OFFSET 0.008217 -0.013209 -0.021152
										CHANNELS 3 Xrotation Yrotation Zrotation
										JOINT finger4-3.L
										{
											OFFSET 0.003838 -0.011894 -0.018031
											CHANNELS 3 Xrotation Yrotation Zrotation
											End Site
											{
												OFFSET 0.002024 -0.010563 -0.020894
											}
										}
									}
								}
								JOINT finger5-1.L
								{
									OFFSET 0.046820 -0.037780 -0.058682
									CHANNELS 3 Xrotation Yrotation Zrotation
									JOINT finger5-2.L
									{
										OFFSET 0.005233 -0.007322 -0.016539
										CHANNELS 3 Xrotation Yrotation Zrotation
										JOINT finger5-3.L
										{
											OFFSET 0.001524 -0.005484 -0.012548
											CHANNELS 3 Xrotation Yrotation Zrotation
											End Site
											{
												OFFSET 0.002248 -0.006725 -0.016023
											}
										}
									}
								}
								JOINT finger1-1.L
								{
									OFFSET 0.000927 -0.039280 -0.005363
									CHANNELS 3 Xrotation Yrotation Zrotation
									JOINT finger1-2.L
									{
										OFFSET -0.018386 -0.018805 -0.006895
										CHANNELS 3 Xrotation Yrotation Zrotation
										JOINT finger1-3.L
										{
											OFFSET -0.010991 -0.028095 -0.011249
											CHANNELS 3 Xrotation Yrotation Zrotation
											End Site
											{
												OFFSET -0.004840 -0.019091 -0.014527
											}
										}
									}
								}
							}
						}
					}
				}
			}
		}
	}
	JOINT upperleg01.R
	{
		OFFSET -0.087495 -0.048056 0.004242
		CHANNELS 6 Xposition Yposition Zposition Xrotation Yrotation Zrotation
		JOINT lowerleg01.R
		{
			OFFSET -0.034522 -0.027831 -0.333803
			CHANNELS 6 Xposition Yposition Zposition Xrotation Yrotation Zrotation
			JOINT foot.R
			{
				OFFSET -0.037458 0.009413 -0.349633
				CHANNELS 3 Xrotation Yrotation Zrotation
				JOINT toe1-1.R
				{
					OFFSET -0.003290 -0.101211 -0.050981
					CHANNELS 6 Xposition Yposition Zposition Xrotation Yrotation Zrotation
					End Site
					{
						OFFSET 0.000524 -0.066142 0.003009
					}
				}
			}
		}
	}
	JOINT upperleg01.L
	{
		OFFSET 0.087495 -0.048056 0.004242
		CHANNELS 6 Xposition Yposition Zposition Xrotation Yrotation Zrotation
		JOINT lowerleg01.L
		{
			OFFSET 0.034522 -0.027831 -0.333803
			CHANNELS 6 Xposition Yposition Zposition Xrotation Yrotation Zrotation
			JOINT foot.L
			{
				OFFSET 0.037458 0.009413 -0.349633
				CHANNELS 3 Xrotation Yrotation Zrotation
				JOINT toe1-1.L
				{
					OFFSET 0.003290 -0.101211 -0.050981
					CHANNELS 6 Xposition Yposition Zposition Xrotation Yrotation Zrotation
					End Site
					{
						OFFSET -0.000524 -0.066142 0.003009
					}
				}
			}
		}
	}
}
MOTION
Frames: 7
Frame Time:	0.016667
0 0.0542 0.7366 0 0 0 0 -0.0506 0.0788 0 0 0 0 -0.0232 0.1046 0 0 0 0 0 0 0 -0.0498 0.1672 0 0 0 0 0 0 0 -0.0436 0.0633 0 0 0 0 0 0 0 0 0 0 0 0 0 0 0 -0.0184 -0.0585 0.1072 0 0 0 -0.1356 -0.0037 -0.0169 0 0 0 -0.1336 0.0018 -0.1531 0 0 0 -0.1086 -0.1548 -0.1038 0 0 0 0 0 0 0 0 0 0 0 0 0 0 0 0 0 0 0 0 0 0 0 0 0 0 0 0 0 0 0 0 0 0 0 0 0 0 0 0 0 0 0 0 0 0 0 0 0.0184 -0.0585 0.1072 0 0 0 0.1356 -0.0037 -0.0169 0 0 0 0.1336 0.0018 -0.1531 0 0 0 0.1086 -0.1548 -0.1038 0 0 0 0 0 0 0 0 0 0 0 0 0 0 0 0 0 0 0 0 0 0 0 0 0 0 0 0 0 0 0 0 0 0 0 0 0 0 0 0 0 0 0 0 0 0 0 0 -0.0875 -0.0481 0.0042 0 0 0 -0.0345 -0.0278 -0.3338 0 0 0 0 0 0 -0.0033 -0.1012 -0.051 0 0 0 0.0875 -0.0481 0.0042 0 0 0 0.0345 -0.0278 -0.3338 0 0 0 0 0 0 0.0033 -0.1012 -0.051 0 0 0 
0.492 0.03 0.4322 -4.1692 27.7497 -84.335 -0.0001 -0.0362 0.0741 5.6011 0.6222 0.1905 -0.0002 -0.0053 0.1077 29.1384 -1.5957 0.3996 0 0 0 0 -0.0433 0.1617 4.8774 0.5716 0.1177 -26.7461 0.0628 -1.7471 0 -0.0436 0.0633 0 0 0 2.3998 0.0109 0.5213 0 0 0 2.3949 0.021 1.0065 0 0 0 -0.0184 -0.0584 0.1071 0.0009 -4.6018 -1.1073 -0.1356 -0.0037 -0.0169 8.2172 -4.4116 18.1708 -0.1336 0.0017 -0.1531 -17.7343 4.0124 45.7361 -0.1085 -0.1548 -0.1037 -39.3756 54.7746 56.6879 41.1168 -24.4289 31.3046 44.1523 -17.906 37.5957 50.8767 -17.1686 42.7211 24.9627 -27.6273 31.3305 44.6232 -32.5044 42.1944 42.2681 -32.4132 40.8886 21.4846 -33.8528 29.5907 43.8655 -41.0639 38.4799 41.2458 -41.8844 39.0497 16.4279 -40.6903 26.7819 36.5712 -45.3077 28.2397 43.1819 -48.1416 35.918 -10.028 -35.9961 -28.4601 6.567 7.882 -15.2454 -2.4334 12.7253 -25.9069 0.0184 -0.0584 0.1071 -1.0084 3.361 -4.9949 0.1356 -0.0037 -0.0169 8.0899 10.2677 -30.5467 0.1336 0.0018 -0.1531 -6.5439 1.9822 -36.5467 0.1086 -0.1547 -0.1037 -60.5017 -68.252 -73.4911 46.5644 24.0869 -36.5163 50.263 16.9498 -43.711 55.0981 16.1071 -47.1907 4.72 14.8993 -11.5342 23.7905 24.8895 -20.1372 21.4401 24.2337 -18.9478 29.6647 37.3685 -37.2612 52.2797 42.7741 -47.3068 50.0333 43.6622 -48.1302 25.346 44.9924 -34.8732 45.3594 48.6544 -37.1224 53.1772 50.6208 -46.0081 -9.0295 33.6512 21.3063 20.0309 -14.3957 39.8642 14.0503 -20.2544 51.6687 -0.0875 -0.0481 0.0042 -50.8418 2.7901 1.6529 -0.0345 -0.0278 -0.3338 69.4035 2.7965 -10.1208 13.3973 -8.0571 -2.6442 -0.0033 -0.1012 -0.051 -0.578 0 0 0.0875 -0.0481 0.0042 -50.9897 9.4687 1.3545 0.0345 -0.0278 -0.3338 66.2994 3.1295 5.9652 14.2387 0.2231 6.7545 0.0033 -0.1012 -0.051 0 0 0 
0.492 0.03 0.4322 -4.1692 27.7497 -84.335 -0.0001 -0.0362 0.0741 5.6011 0.6222 0.1905 -0.0002 -0.0053 0.1077 29.1384 -1.5957 0.3996 0 0 0 0 -0.0433 0.1617 4.8774 0.5716 0.1177 -26.7461 0.0628 -1.7471 0 -0.0436 0.0633 0 0 0 2.3998 0.0109 0.5213 0 0 0 2.3949 0.021 1.0065 -0.0001 0 0 -0.0184 -0.0584 0.1071 0.001 -4.6018 -1.1073 -0.1356 -0.0037 -0.0169 8.2172 -4.4116 18.1708 -0.1336 0.0017 -0.1531 -17.7342 4.0123 45.7362 -0.1085 -0.1548 -0.1037 -39.3755 54.7747 56.6878 41.1168 -24.4289 31.3046 44.1523 -17.9059 37.5957 50.8767 -17.1686 42.7211 24.9627 -27.6273 31.3305 44.6232 -32.5044 42.1945 42.268 -32.4132 40.8886 21.4846 -33.8528 29.5907 43.8654 -41.0639 38.4799 41.2458 -41.8844 39.0497 16.4279 -40.6903 26.7819 36.5712 -45.3076 28.2397 43.1818 -48.1416 35.918 -10.0281 -35.9961 -28.4601 6.567 7.882 -15.2454 -2.4335 12.7253 -25.9068 0.0184 -0.0584 0.1071 -1.0084 3.361 -4.9949 0.1356 -0.0037 -0.0169 8.0898 10.2677 -30.5467 0.1336 0.0018 -0.1531 -6.544 1.9822 -36.5467 0.1086 -0.1547 -0.1037 -60.5017 -68.252 -73.4911 46.5644 24.0869 -36.5163 50.263 16.9499 -43.711 55.0981 16.1071 -47.1907 4.72 14.8994 -11.5342 23.7905 24.8895 -20.1372 21.4401 24.2337 -18.9478 29.6648 37.3685 -37.2612 52.2798 42.7741 -47.3068 50.0333 43.6622 -48.1302 25.3461 44.9924 -34.8732 45.3593 48.6544 -37.1224 53.1772 50.6208 -46.0081 -9.0294 33.6512 21.3063 20.0309 -14.3957 39.8642 14.0503 -20.2544 51.6687 -0.0875 -0.0481 0.0042 -50.8418 2.7901 1.6529 -0.0345 -0.0278 -0.3338 69.4035 2.7964 -10.1208 13.3973 -8.0571 -2.6442 -0.0033 -0.1012 -0.051 -0.578 0 0 0.0875 -0.0481 0.0042 -50.9897 9.4687 1.3545 0.0345 -0.0278 -0.3338 66.2994 3.1295 5.9651 14.2386 0.2231 6.7545 0.0033 -0.1012 -0.051 0 0 0 
0.4921 0.03 0.4323 -4.1482 27.7269 -84.3351 -0.0001 -0.0362 0.0742 5.781 0.6139 0.1987 -0.0002 -0.0054 0.1078 29.3001 -1.5853 0.4054 0 0 0 0 -0.0433 0.1617 4.7899 0.5797 0.1554 -26.8463 0.0301 -1.7203 0 -0.0436 0.0633 0 0 0 2.3603 0.0103 0.5016 0 -0.0001 0 2.3556 0.0202 0.9878 0 0 0 -0.0184 -0.0584 0.1071 -0.0008 -4.6019 -1.1127 -0.1356 -0.0037 -0.0169 8.1786 -4.3755 18.0495 -0.1336 0.0017 -0.1531 -17.9854 3.9255 45.9228 -0.1085 -0.1548 -0.1037 -39.4697 54.8618 56.8039 41.09 -24.4269 31.2738 44.1352 -17.9065 37.5796 50.8492 -17.1719 42.6954 24.9303 -27.6116 31.2939 44.6014 -32.5008 42.1713 42.2135 -32.4031 40.8311 21.4562 -33.8327 29.5593 43.8404 -41.0565 38.454 41.193 -41.8688 38.996 16.3924 -40.6621 26.745 36.5337 -45.289 28.2022 43.1147 -48.1183 35.8509 -9.9824 -35.9696 -28.4895 6.5572 7.8695 -15.2137 -2.5008 12.6417 -25.7461 0.0184 -0.0584 0.1071 -1.0138 3.3615 -5.0057 0.1356 -0.0037 -0.0169 7.9906 10.1584 -30.4119 0.1336 0.0018 -0.1531 -6.8099 1.9998 -36.9144 0.1086 -0.1547 -0.1037 -60.3131 -68.427 -73.3702 46.5573 24.0873 -36.5093 50.2589 16.9504 -43.7072 55.0919 16.1082 -47.1849 4.6726 14.8441 -11.4762 23.7668 24.8756 -20.1117 21.3487 24.1767 -18.8496 29.6611 37.3659 -37.2562 52.2776 42.7738 -47.3046 50.0263 43.661 -48.1231 25.3315 44.9843 -34.8581 45.3463 48.6502 -37.1094 53.1557 50.6165 -45.9866 -9.0295 33.6512 21.3063 20.0309 -14.3957 39.8643 14.0503 -20.2544 51.6687 -0.0875 -0.0481 0.0042 -50.8383 2.8003 1.6365 -0.0345 -0.0278 -0.3338 69.3406 2.7905 -10.1053 13.4413 -8.0535 -2.6489 -0.0033 -0.1012 -0.051 -0.5892 0 0 0.0875 -0.0481 0.0042 -50.9991 9.4676 1.3532 0.0345 -0.0278 -0.3338 66.2743 3.1111 5.9736 14.2469 0.2172 6.7355 0.0033 -0.1012 -0.051 0 0 0 
0.4916 0.0296 0.4326 -4.188 27.9306 -84.3036 -0.0001 -0.0362 0.0743 6.0695 0.6054 0.2069 -0.0002 -0.0054 0.1078 29.4768 -1.5902 0.4113 0 0 0 0 -0.0433 0.1618 4.6805 0.5846 0.1594 -26.8579 0.0456 -1.7328 0 -0.0436 0.0633 0 -0.0001 0 2.3323 0.0101 0.4959 0 0 0 2.3277 0.0199 0.9828 0 0 0.0001 -0.0184 -0.0584 0.1071 0 -4.6019 -1.1246 -0.1356 -0.0037 -0.0169 8.1695 -4.3121 17.9434 -0.1336 0.0017 -0.1531 -18.1458 3.8676 46.0352 -0.1085 -0.1548 -0.1037 -39.5821 54.9094 56.9247 41.0906 -24.4229 31.2638 44.1322 -17.9066 37.5768 50.8445 -17.1725 42.691 24.9337 -27.602 31.2828 44.5977 -32.5002 42.1674 42.2038 -32.4014 40.8208 21.4554 -33.8264 29.5521 43.8361 -41.0552 38.4496 41.1836 -41.866 38.9865 16.389 -40.6549 26.738 36.5272 -45.2858 28.1957 43.1027 -48.1141 35.8389 -9.9314 -35.9569 -28.4522 6.555 7.8668 -15.2066 -2.5142 12.625 -25.7141 0.0184 -0.0584 0.1071 -1.0178 3.3619 -5.0207 0.1356 -0.0037 -0.0169 7.9588 10.1776 -30.4106 0.1336 0.0018 -0.1531 -6.9022 1.9849 -37.0857 0.1086 -0.1547 -0.1037 -60.5355 -68.5642 -73.6254 46.557 24.0867 -36.507 50.2582 16.9505 -43.7065 55.0909 16.1084 -47.1839 4.6963 14.8171 -11.4544 23.7636 24.8738 -20.1082 21.3323 24.1665 -18.832 29.6608 37.3652 -37.2552 52.2774 42.7737 -47.3044 50.0251 43.6608 -48.1218 25.3292 44.9825 -34.8552 45.3441 48.6495 -37.1072 53.1517 50.6157 -45.9827 -9.0295 33.6512 21.3063 20.0309 -14.3957 39.8642 14.0503 -20.2544 51.6688 -0.0875 -0.0481 0.0042 -50.56 2.8585 1.6103 -0.0345 -0.0278 -0.3338 69.3226 2.8364 -10.1311 13.4273 -8.0991 -2.5685 -0.0033 -0.1012 -0.051 -0.6139 0 0 0.0875 -0.0481 0.0042 -50.7268 9.5135 1.3749 0.0345 -0.0278 -0.3338 66.2561 3.1119 5.9711 14.1903 0.2 6.7226 0.0033 -0.1012 -0.051 0 0 0 
0.4913 0.0292 0.4328 -4.2054 28.0699 -84.3213 -0.0001 -0.0362 0.0743 6.2536 0.5939 0.2107 -0.0002 -0.0054 0.1079 29.5781 -1.5889 0.4147 0 0 0 0 -0.0433 0.1618 4.6148 0.5908 0.1755 -26.8193 0.0652 -1.719 0 -0.0436 0.0633 0 -0.0001 0.0001 2.3043 0.0093 0.4618 0 -0.0001 0 2.2999 0.019 0.9504 0 0 0.0001 -0.0184 -0.0584 0.1071 0.0007 -4.602 -1.1312 -0.1356 -0.0037 -0.0169 8.1617 -4.266 17.8929 -0.1336 0.0017 -0.1531 -18.2196 3.8421 46.0865 -0.1085 -0.1548 -0.1037 -39.6789 54.9283 57.0335 41.0816 -24.4207 31.2493 44.1251 -17.9068 37.5701 50.8337 -17.1738 42.6808 24.9241 -27.5929 31.266 44.5895 -32.4989 42.1587 42.1808 -32.3971 40.7966 21.4459 -33.8167 29.5382 43.8266 -41.0524 38.4397 41.1612 -41.8594 38.9638 16.3758 -40.6416 26.722 36.5119 -45.2782 28.1803 43.0742 -48.1041 35.8103 -9.8946 -35.9419 -28.4489 6.5499 7.8602 -15.1899 -2.5472 12.5839 -25.6352 0.0184 -0.0584 0.1071 -1.0199 3.3621 -5.0287 0.1356 -0.0037 -0.0169 7.9508 10.207 -30.4156 0.1336 0.0018 -0.1531 -6.9418 1.9721 -37.1661 0.1086 -0.1547 -0.1037 -60.7323 -68.6516 -73.8289 46.5544 24.0866 -36.5038 50.2565 16.9507 -43.705 55.0884 16.1089 -47.1816 4.6896 14.788 -11.4265 23.7576 24.8702 -20.1017 21.2934 24.1422 -18.7901 29.6597 37.3639 -37.2531 52.277 42.7737 -47.3039 50.0223 43.6604 -48.119 25.3231 44.9786 -34.8484 45.3389 48.6477 -37.102 53.1424 50.6139 -45.9733 -9.0295 33.6512 21.3063 20.0309 -14.3957 39.8643 14.0503 -20.2544 51.6687 -0.0875 -0.0481 0.0042 -50.3699 2.866 1.5893 -0.0345 -0.0278 -0.3338 69.2903 2.8851 -10.1561 13.4421 -8.1342 -2.5052 -0.0033 -0.1012 -0.051 -0.6384 0 0 0.0875 -0.0481 0.0042 -50.5455 9.5146 1.3896 0.0345 -0.0278 -0.3338 66.2558 3.1288 5.9607 14.1385 0.1962 6.7281 0.0033 -0.1012 -0.051 0 0 0 
0.492 0.0299 0.4325 -4.0879 27.6661 -84.3696 -0.0001 -0.0362 0.0743 6.0051 0.6134 0.2108 -0.0002 -0.0053 0.1078 29.4704 -1.5763 0.4108 0 0 0 0 -0.0434 0.1618 4.6926 0.5853 0.1861 -26.8686 -0.0123 -1.7075 0 -0.0436 0.0633 0 -0.0001 0 2.2531 0.005 0.2454 0 0 0 2.2501 0.0147 0.7417 0 0 0 -0.0184 -0.0584 0.1071 -0.0025 -4.602 -1.1187 -0.1356 -0.0037 -0.0169 8.1723 -4.3767 17.9293 -0.1336 0.0017 -0.1531 -18.2334 3.8327 46.1283 -0.1085 -0.1548 -0.1037 -39.6977 54.9764 57.0441 41.0777 -24.4195 31.2424 44.1218 -17.9069 37.567 50.8289 -17.1743 42.6764 24.9202 -27.5883 31.2581 44.5859 -32.4983 42.1549 42.1704 -32.3952 40.7856 21.4419 -33.8121 29.5317 43.8223 -41.0511 38.4353 41.151 -41.8564 38.9534 16.3702 -40.6353 26.7147 36.5049 -45.2747 28.1733 43.0611 -48.0996 35.7973 -9.8751 -35.9345 -28.4454 6.5474 7.857 -15.1818 -2.5632 12.5639 -25.5968 0.0184 -0.0584 0.1071 -1.0178 3.3618 -5.0091 0.1356 -0.0037 -0.0169 7.9531 10.0624 -30.2548 0.1336 0.0018 -0.1531 -7.1226 2.0016 -37.431 0.1086 -0.1547 -0.1037 -60.3639 -68.725 -73.5192 46.5532 24.0866 -36.5023 50.2558 16.9508 -43.7043 55.0873 16.1091 -47.1806 4.6885 14.7739 -11.4132 23.7556 24.8691 -20.0995 21.2755 24.131 -18.7709 29.6593 37.3633 -37.2521 52.2769 42.7736 -47.3038 50.0209 43.6602 -48.1176 25.3205 44.9767 -34.8452 45.3366 48.647 -37.0996 53.1381 50.613 -45.969 -9.0295 33.6512 21.3063 20.0309 -14.3956 39.8643 14.0503 -20.2544 51.6687 -0.0875 -0.0481 0.0042 -50.862 2.7808 1.5746 -0.0345 -0.0278 -0.3338 69.3034 2.8218 -10.1182 13.5076 -8.1145 -2.6106 -0.0033 -0.1012 -0.051 -0.6436 0 0 0.0875 -0.0481 0.0042 -51.0463 9.4257 1.3253 0.0345 -0.0278 -0.3338 66.2968 3.1041 5.9804 14.2076 0.2517 6.6463 0.0033 -0.1012 -0.051 0 0 0 
